<?xml version="1.0" encoding="iso-8859-1"?>
<!-- Generator: Adobe Illustrator 19.0.0, SVG Export Plug-In . SVG Version: 6.00 Build 0)  -->
<svg version="1.1" id="Capa_1" xmlns="http://www.w3.org/2000/svg" xmlns:xlink="http://www.w3.org/1999/xlink" x="0px" y="0px"
	 viewBox="0 0 512 512" style="enable-background:new 0 0 512 512;" xml:space="preserve">
<path style="fill:#FFC433;" d="M416.307,160.307c0-88.258-71.323-159.858-159.476-160.304
	C168.236-0.447,95.692,71.713,95.693,160.308c0,51.765,24.541,97.793,62.618,127.1c12.025,9.255,18.868,23.732,18.868,38.905v49.321
	h157.639v-49.73c0-15.125,7.043-29.37,19.018-38.61C391.83,257.98,416.307,212.005,416.307,160.307z"/>
<path style="opacity:0.1;enable-background:new    ;" d="M256.829,0.002c-5.835-0.029-11.598,0.264-17.276,0.848
	c80.758,8.285,143.755,76.511,143.755,159.457c0,51.699-24.476,97.674-62.469,126.987c-11.976,9.239-19.018,23.484-19.018,38.61
	v49.73h32.998v-49.73c0-15.126,7.042-29.37,19.018-38.61c37.994-29.312,62.469-75.288,62.469-126.987
	C416.307,72.049,344.982,0.449,256.829,0.002z"/>
<polygon style="fill:#DDA322;" points="350.583,141.041 329.043,141.041 325.383,132.204 340.614,116.973 305.146,81.506 
	289.916,96.737 281.079,93.077 281.079,71.537 230.92,71.537 230.92,93.077 222.083,96.737 206.853,81.506 171.385,116.973 
	186.616,132.204 182.956,141.041 161.416,141.041 161.416,191.199 182.956,191.199 186.616,200.037 171.385,215.267 
	206.853,250.735 222.083,235.504 230.92,239.165 230.92,260.704 281.079,260.704 281.079,239.165 289.916,235.504 305.146,250.735 
	340.614,215.267 325.383,200.037 329.043,191.199 350.583,191.199 "/>
<circle style="fill:#FFFFFF;" cx="255.999" cy="166.116" r="42.874"/>
<g>
	<rect x="177.176" y="400.378" style="fill:#AEAEAE;" width="157.636" height="32.073"/>
	<path style="fill:#AEAEAE;" d="M284.827,512h-57.656c-27.61,0-49.992-22.382-49.992-49.992v-4.806h157.639v4.806
		C334.819,489.618,312.437,512,284.827,512z"/>
</g>
<path style="opacity:0.1;enable-background:new    ;" d="M306.94,457.202v4.806c0,27.61-22.382,49.991-49.992,49.991h27.879
	c27.61,0,49.992-22.382,49.992-49.991v-4.806H306.94z"/>
<rect x="177.176" y="341.561" style="fill:#DDA322;" width="157.636" height="34.072"/>
<rect x="298.873" y="400.378" style="opacity:0.1;enable-background:new    ;" width="35.942" height="32.073"/>
<g>
</g>
<g>
</g>
<g>
</g>
<g>
</g>
<g>
</g>
<g>
</g>
<g>
</g>
<g>
</g>
<g>
</g>
<g>
</g>
<g>
</g>
<g>
</g>
<g>
</g>
<g>
</g>
<g>
</g>
</svg>
