<?xml version="1.0" encoding="iso-8859-1"?>
<!-- Generator: Adobe Illustrator 19.0.0, SVG Export Plug-In . SVG Version: 6.00 Build 0)  -->
<svg version="1.1" id="Capa_1" xmlns="http://www.w3.org/2000/svg" xmlns:xlink="http://www.w3.org/1999/xlink" x="0px" y="0px"
	 viewBox="0 0 512 512" style="enable-background:new 0 0 512 512;" xml:space="preserve">
<path style="fill:#FF395E;" d="M354.507,488.73c0,12.852-10.418,23.27-23.27,23.27H183.858c-12.852,0-23.27-10.418-23.27-23.27
	V201.068c0-12.852,10.418-23.27,23.27-23.27h147.379c12.852,0,23.27,10.418,23.27,23.27V488.73z"/>
<path style="fill:#B12E65;" d="M247.49,488.73V201.068c0-12.852,10.418-23.27,23.27-23.27h-86.903
	c-12.852,0-23.27,10.418-23.27,23.27V488.73c0,12.852,10.418,23.27,23.27,23.27h86.903C257.908,512,247.49,501.582,247.49,488.73z"
	/>
<rect x="160.592" y="224.73" style="fill:#8ACAEB;" width="193.92" height="216.097"/>
<g>
	<path style="fill:#842D65;" d="M278.693,464.552c6.55,0,11.862,5.312,11.862,11.862c0,3.28-1.331,6.24-3.476,8.386
		c-2.145,2.145-5.106,3.476-8.386,3.476h-44.354c-6.55,0-11.862-5.312-11.862-11.862c0-3.28,1.331-6.241,3.476-8.386
		c2.145-2.145,5.106-3.476,8.386-3.476H278.693z"/>
	<path style="fill:#842D65;" d="M271.988,209.258h-61.889c-4.272,0-7.736-3.464-7.736-7.736c0-4.272,3.464-7.736,7.736-7.736h61.889
		c4.273,0,7.736,3.464,7.736,7.736C279.724,205.794,276.262,209.258,271.988,209.258z"/>
	<path style="fill:#842D65;" d="M306.027,209.258h-14.441c-4.273,0-7.736-3.464-7.736-7.736c0-4.272,3.463-7.736,7.736-7.736h14.441
		c4.273,0,7.736,3.464,7.736,7.736C313.763,205.794,310.301,209.258,306.027,209.258z"/>
</g>
<path style="fill:#F3D064;" d="M495.821,12.811v45.282c0,7.076-5.735,12.811-12.811,12.811h-69.275
	c-7.076,0-12.811-5.735-12.811-12.811V12.811C400.924,5.735,406.659,0,413.735,0h69.275C490.086,0,495.821,5.735,495.821,12.811z"/>
<g>
	<path style="fill:#EAB430;" d="M448.373,141.18c-4.273,0-7.736-3.464-7.736-7.736v-33.008c0-4.272,3.463-7.736,7.736-7.736
		s7.736,3.464,7.736,7.736v33.008C456.109,137.716,452.646,141.18,448.373,141.18z"/>
	<path style="fill:#EAB430;" d="M448.373,178.313c-4.273,0-7.736-3.464-7.736-7.736v-9.283c0-4.272,3.463-7.736,7.736-7.736
		s7.736,3.464,7.736,7.736v9.283C456.109,174.85,452.646,178.313,448.373,178.313z"/>
</g>
<path style="fill:#DFDE48;" d="M304.996,49.945v45.282c0,7.076-5.735,12.811-12.811,12.811H222.91
	c-7.076,0-12.811-5.735-12.811-12.811V49.945c0-7.076,5.735-12.811,12.811-12.811h69.275
	C299.261,37.134,304.996,42.869,304.996,49.945z"/>
<path style="fill:#A0B248;" d="M257.547,158.715c-4.272,0-7.736-3.464-7.736-7.736v-16.504c0-4.272,3.464-7.736,7.736-7.736
	c4.273,0,7.736,3.464,7.736,7.736v16.504C265.283,155.251,261.821,158.715,257.547,158.715z"/>
<path style="fill:#F3D064;" d="M282.303,272.746v45.282c0,7.076-5.735,12.811-12.811,12.811h-69.275
	c-7.076,0-12.811-5.735-12.811-12.811v-45.282c0-7.076,5.735-12.811,12.811-12.811h69.275
	C276.568,259.935,282.303,265.67,282.303,272.746z"/>
<path style="fill:#EBBD45;" d="M239.929,307.631c-7.076,0-12.811-5.735-12.811-12.811v-34.885h-26.901
	c-7.076,0-12.811,5.735-12.811,12.811v45.282c0,7.076,5.735,12.811,12.811,12.811h69.275c7.076,0,12.811-5.735,12.811-12.811
	v-10.397L239.929,307.631L239.929,307.631z"/>
<path style="fill:#FF395E;" d="M401.956,338.762v45.282c0,7.076-5.735,12.811-12.811,12.811H319.87
	c-7.076,0-12.811-5.735-12.811-12.811v-45.282c0-7.076,5.735-12.811,12.811-12.811h69.275
	C396.221,325.95,401.956,331.685,401.956,338.762z"/>
<g>
	<path style="fill:#6DB7D8;" d="M234.854,384.611c-4.272,0-7.736-3.464-7.736-7.736v-23.724c0-4.272,3.464-7.736,7.736-7.736
		c4.272,0,7.736,3.464,7.736,7.736v23.724C242.591,381.147,239.127,384.611,234.854,384.611z"/>
	<path style="fill:#6DB7D8;" d="M234.854,424.839c-4.272,0-7.736-3.464-7.736-7.736v-16.504c0-4.272,3.464-7.736,7.736-7.736
		c4.272,0,7.736,3.464,7.736,7.736v16.504C242.591,421.375,239.127,424.839,234.854,424.839z"/>
</g>
<path style="fill:#EAB430;" d="M448.373,330.974c-4.273,0-7.736-3.464-7.736-7.736V201.522c0-4.272,3.463-7.736,7.736-7.736
	s7.736,3.464,7.736,7.736v121.716C456.109,327.51,452.646,330.974,448.373,330.974z"/>
<path style="fill:#7DBFEC;" d="M111.076,143.81v45.282c0,7.076-5.735,12.811-12.811,12.811H28.99
	c-7.076,0-12.811-5.735-12.811-12.811V143.81c0-7.076,5.735-12.811,12.811-12.811h69.275
	C105.341,130.999,111.076,136.734,111.076,143.81z"/>
<path style="fill:#EBBD45;" d="M459.637,53.369c-7.076,0-12.811-5.735-12.811-12.811V0h-33.09c-7.076,0-12.811,5.735-12.811,12.811
	v45.282c0,7.076,5.735,12.811,12.811,12.811h69.275c7.076,0,12.811-5.735,12.811-12.811v-4.724
	C495.821,53.369,459.637,53.369,459.637,53.369z"/>
<path style="fill:#C5D65C;" d="M268.811,90.503c-7.076,0-12.811-5.735-12.811-12.811V37.134h-33.09
	c-7.076,0-12.811,5.735-12.811,12.811v45.282c0,7.076,5.735,12.811,12.811,12.811h69.275c7.076,0,12.811-5.735,12.811-12.811v-4.724
	H268.811z"/>
<path style="fill:#B12E65;" d="M365.771,379.32c-7.076,0-12.811-5.735-12.811-12.811V325.95h-33.09
	c-7.076,0-12.811,5.735-12.811,12.811v45.282c0,7.076,5.735,12.811,12.811,12.811h69.275c7.076,0,12.811-5.735,12.811-12.811v-4.724
	L365.771,379.32L365.771,379.32z"/>
<g>
	<path style="fill:#7CA1D8;" d="M74.891,184.368c-7.076,0-12.811-5.735-12.811-12.811v-40.558H28.99
		c-7.076,0-12.811,5.735-12.811,12.811v45.282c0,7.076,5.735,12.811,12.811,12.811h69.275c7.076,0,12.811-5.735,12.811-12.811
		v-4.724H74.891z"/>
	<path style="fill:#7CA1D8;" d="M63.627,272.179c-4.272,0-7.736-3.464-7.736-7.736v-33.008c0-4.272,3.464-7.736,7.736-7.736
		s7.736,3.464,7.736,7.736v33.008C71.364,268.715,67.9,272.179,63.627,272.179z"/>
	<path style="fill:#7CA1D8;" d="M63.627,309.313c-4.272,0-7.736-3.464-7.736-7.736v-9.283c0-4.272,3.464-7.736,7.736-7.736
		s7.736,3.464,7.736,7.736v9.283C71.364,305.849,67.9,309.313,63.627,309.313z"/>
	<path style="fill:#7CA1D8;" d="M63.627,461.973c-4.272,0-7.736-3.464-7.736-7.736V332.521c0-4.272,3.464-7.736,7.736-7.736
		s7.736,3.464,7.736,7.736v121.716C71.364,458.509,67.9,461.973,63.627,461.973z"/>
</g>
<g>
</g>
<g>
</g>
<g>
</g>
<g>
</g>
<g>
</g>
<g>
</g>
<g>
</g>
<g>
</g>
<g>
</g>
<g>
</g>
<g>
</g>
<g>
</g>
<g>
</g>
<g>
</g>
<g>
</g>
</svg>
