<?xml version="1.0" encoding="iso-8859-1"?>
<!-- Generator: Adobe Illustrator 19.0.0, SVG Export Plug-In . SVG Version: 6.00 Build 0)  -->
<svg version="1.1" id="Capa_1" xmlns="http://www.w3.org/2000/svg" xmlns:xlink="http://www.w3.org/1999/xlink" x="0px" y="0px"
	 viewBox="0 0 512.001 512.001" style="enable-background:new 0 0 512.001 512.001;" xml:space="preserve">
<polygon style="fill:#E3E3E3;" points="278.936,300.264 375.588,396.916 398.05,374.453 304.423,280.827 "/>
<path style="fill:#CD315B;" d="M508.925,460.488l-45.613,45.613c-4.099,4.099-10.747,4.099-14.846,0l-90.758-90.758
	c-4.099-4.099-4.099-10.747,0-14.846l45.613-45.613c4.099-4.099,10.747-4.099,14.846,0l90.758,90.758
	C513.025,449.741,513.025,456.387,508.925,460.488z"/>
<path style="opacity:0.1;enable-background:new    ;" d="M504.509,442.061l-41.196,41.196c-4.099,4.099-10.747,4.099-14.846,0
	l-86.34-86.34l-4.416,4.417c-4.099,4.099-4.099,10.747,0,14.846l90.758,90.758c4.099,4.099,10.747,4.099,14.846,0l45.613-45.613
	c4.099-4.099,4.099-10.747,0-14.846L504.509,442.061z"/>
<circle style="fill:#CD315B;" cx="175.051" cy="177.038" r="175.051"/>
<path style="opacity:0.1;enable-background:new    ;" d="M298.947,53.266c-2.126-2.126-4.293-4.184-6.498-6.178
	c62.115,68.714,60.057,174.822-6.178,241.055c-66.235,66.235-172.341,68.293-241.055,6.178c1.994,2.205,4.052,4.372,6.178,6.497
	c68.361,68.361,179.194,68.361,247.553,0C367.307,232.459,367.307,121.626,298.947,53.266z"/>
<circle style="fill:#E3E3E3;" cx="175.051" cy="175.873" r="132.681"/>
<g>
	<path style="fill:#FFC433;" d="M182.129,195.147h-7.161c-5.915,0-10.785-4.527-11.055-10.277l-4.52-83.624
		c-0.289-6.135,4.745-11.262,11.055-11.262h16.201c6.311,0,11.344,5.127,11.055,11.262l-4.52,83.624
		C192.914,190.62,188.045,195.147,182.129,195.147z"/>
	<ellipse style="fill:#FFC433;" cx="178.546" cy="239.626" rx="17.941" ry="17.459"/>
</g>
<path style="opacity:0.2;fill:#FFFFFF;enable-background:new    ;" d="M267.801,80.667c-8.196-8.196-17.197-15.091-26.749-20.693
	L59.47,241.556c5.603,9.551,12.498,18.554,20.693,26.749c13.931,13.931,30.191,24.11,47.525,30.55l170.664-170.664
	C291.911,110.857,281.731,94.598,267.801,80.667z"/>
<g>
</g>
<g>
</g>
<g>
</g>
<g>
</g>
<g>
</g>
<g>
</g>
<g>
</g>
<g>
</g>
<g>
</g>
<g>
</g>
<g>
</g>
<g>
</g>
<g>
</g>
<g>
</g>
<g>
</g>
</svg>
